<?xml version="1.0" standalone="no"?>
<!DOCTYPE svg PUBLIC "-//W3C//DTD SVG 20010904//EN"
 "http://www.w3.org/TR/2001/REC-SVG-20010904/DTD/svg10.dtd">
<svg version="1.0" xmlns="http://www.w3.org/2000/svg"
 width="512.000000pt" height="512.000000pt" viewBox="0 0 512.000000 512.000000"
 preserveAspectRatio="xMidYMid meet">
<metadata>
Created by potrace 1.14, written by Peter Selinger 2001-2017
</metadata>
<g transform="translate(0.000000,512.000000) scale(0.100000,-0.100000)"
fill="#000000" stroke="none">
<path d="M390 5104 c-30 -8 -80 -26 -110 -41 -72 -35 -188 -151 -223 -223 -61
-126 -57 23 -57 -2280 0 -2303 -4 -2154 57 -2280 35 -72 151 -188 223 -223
126 -61 -23 -57 2280 -57 2303 0 2154 -4 2280 57 72 35 188 151 223 223 61
126 57 -23 57 2280 0 2303 4 2154 -57 2280 -35 72 -151 188 -223 223 -127 61
23 57 -2285 56 -1816 0 -2118 -2 -2165 -15z m2610 -889 l0 -135 135 0 135 0 0
-135 0 -135 135 0 135 0 0 -435 0 -435 -135 0 -134 0 -3 -132 -3 -133 -132 -3
-133 -3 0 -109 0 -110 135 0 135 0 0 -410 0 -410 135 0 135 0 0 -435 0 -435
-160 0 -160 0 0 410 0 410 -135 0 -135 0 0 410 0 410 -520 0 -520 0 0 -820 0
-820 -162 2 -163 3 -3 1793 -2 1792 710 0 710 0 0 -135z"/>
<path d="M1910 3375 l0 -655 520 0 520 0 0 135 0 135 135 0 135 0 0 385 0 385
-135 0 -135 0 0 135 0 135 -520 0 -520 0 0 -655z"/>
</g>
</svg>
